# xmcd
#
# Track frame offsets:
#	150
#	23140
#	38072
#	56005
#	73254
#	90756
#	108084
#	126432
#	143333
#	159046
#	185020
#	199624
#
# Disc length: 2983 seconds
#
# Revision: 2
# Processed by: cddbd v1.5.2PL0 Copyright (c) Steve Scherf et al.
# Submitted via: audiograbber 1.83.01
#
DISCID=940ba50c
DTITLE=Lynyrd Skynyrd - God and Guns
DYEAR=2009
DGENRE=Southern Rock
TTITLE0=Still Unbroken
TTITLE1=Simple Life
TTITLE2=Little Thing Called You
TTITLE3=Southern Ways
TTITLE4=Skynyrd Nation
TTITLE5=Unwrite That Song
TTITLE6=Floyd
TTITLE7=That Ain't My America
TTITLE8=Comin Back For More
TTITLE9=God and Guns
TTITLE10=Storm
TTITLE11=Gifted Hands
EXTD=
EXTT0=
EXTT1=
EXTT2=
EXTT3=
EXTT4=
EXTT5=
EXTT6=
EXTT7=
EXTT8=
EXTT9=
EXTT10=
EXTT11=
PLAYORDER=
